<svg width="54" height="54" viewBox="0 0 54 54" fill="none" xmlns="http://www.w3.org/2000/svg">
<g clip-path="url(#clip0_1_85)">
<path d="M53.1925 33.5294C49.5851 48.0015 34.9226 56.7988 20.4713 53.1911C5.99886 49.5837 -2.7985 34.9219 0.809161 20.4707C4.41661 5.99873 19.0578 -2.79862 33.5302 0.80904C47.9815 4.3954 56.8002 19.0572 53.1925 33.5294Z" fill="url(#paint0_linear_1_85)"/>
<path d="M39.8557 23.6356C40.383 20.0497 37.6619 18.109 33.9073 16.8223L35.1307 11.9497L32.1776 11.2114L30.9963 15.9575C30.2159 15.7676 29.4143 15.5778 28.6127 15.409L29.794 10.6418L26.8409 9.90356L25.6385 14.7551C24.9846 14.6075 24.3518 14.4598 23.7401 14.3122V14.2911L19.6479 13.2786L18.8674 16.4426C18.8674 16.4426 21.0612 16.9489 21.019 16.97C22.2213 17.2653 22.4323 18.0668 22.3901 18.6997L20.9979 24.2473C21.0823 24.2684 21.1877 24.2895 21.3143 24.3528C21.2088 24.3317 21.1033 24.3106 20.9979 24.2684L19.0573 32.0309C18.9096 32.3895 18.5299 32.9379 17.7073 32.727C17.7284 32.7692 15.5557 32.1997 15.5557 32.1997L14.0791 35.5958L17.9393 36.5661C18.6565 36.7559 19.3526 36.9247 20.0487 37.1145L18.8252 42.0293L21.7784 42.7676L23.0018 37.895C23.8033 38.1059 24.6049 38.3168 25.3643 38.5067L24.1619 43.3583L27.1151 44.0965L28.3385 39.1817C33.401 40.1309 37.1979 39.7512 38.7799 35.1739C40.0666 31.5036 38.7166 29.3731 36.0588 27.9809C38.0205 27.5379 39.476 26.2512 39.8557 23.6356ZM33.0846 33.1278C32.1776 36.7981 25.976 34.8153 23.9721 34.309L25.5963 27.7911C27.6002 28.2973 34.0549 29.2887 33.0846 33.1278ZM34.0127 23.5723C33.169 26.9262 28.0221 25.2176 26.3557 24.7958L27.8323 18.8895C29.4987 19.3114 34.8776 20.0918 34.0127 23.5723Z" fill="white"/>
</g>
<defs>
<linearGradient id="paint0_linear_1_85" x1="26.9856" y1="-0.0128379" x2="26.9856" y2="53.9947" gradientUnits="userSpaceOnUse">
<stop stop-color="#F9AA4B"/>
<stop offset="1" stop-color="#F7931A"/>
</linearGradient>
<clipPath id="clip0_1_85">
<rect width="54" height="54" fill="white"/>
</clipPath>
</defs>
</svg>
