<svg width="40" height="32" viewBox="0 0 40 32" fill="none" xmlns="http://www.w3.org/2000/svg">
<path d="M15.5083 21.7799C15.5083 23.483 14.6 26.27 12.45 26.27C10.3 26.27 9.39167 23.483 9.39167 21.7799C9.39167 20.0767 10.3 17.2897 12.45 17.2897C14.6 17.2897 15.5083 20.0767 15.5083 21.7799ZM40 17.6646C40 20.2641 39.7333 23.0185 38.5417 25.4062C35.3833 31.6485 26.7 31.5018 20.4833 31.5018C14.1667 31.5018 4.96667 31.7218 1.68333 25.4062C0.466667 23.043 0 20.2641 0 17.6646C0 14.2501 1.15833 11.023 3.45833 8.40714C3.025 7.11957 2.81667 5.76682 2.81667 4.43036C2.81667 2.67829 3.225 1.79819 4.03333 0.209106C7.80833 0.209106 10.225 0.942529 13.1 3.14279C15.5167 2.5805 18 2.32788 20.4917 2.32788C22.7417 2.32788 25.0083 2.56421 27.1917 3.0776C30.025 0.901783 32.4417 0.209106 36.175 0.209106C36.9917 1.79819 37.3917 2.67829 37.3917 4.43036C37.3917 5.76682 37.175 7.09513 36.75 8.35824C39.0417 10.9986 40 14.2501 40 17.6646ZM34.6417 21.7799C34.6417 18.2024 32.4167 15.0487 28.5167 15.0487C26.9417 15.0487 25.4333 15.3258 23.85 15.5376C22.6083 15.7251 21.3667 15.7984 20.0917 15.7984C18.825 15.7984 17.5833 15.7251 16.3333 15.5376C14.775 15.3258 13.25 15.0487 11.6667 15.0487C7.76667 15.0487 5.54167 18.2024 5.54167 21.7799C5.54167 28.9348 12.2417 30.0349 18.075 30.0349H22.0917C27.95 30.0349 34.6417 28.943 34.6417 21.7799ZM27.7583 17.2897C25.6083 17.2897 24.7 20.0767 24.7 21.7799C24.7 23.483 25.6083 26.27 27.7583 26.27C29.9083 26.27 30.8167 23.483 30.8167 21.7799C30.8167 20.0767 29.9083 17.2897 27.7583 17.2897Z" fill="#968E8E"/>
</svg>
