<svg width="40" height="39" viewBox="0 0 40 39" fill="none" xmlns="http://www.w3.org/2000/svg">
<path fill-rule="evenodd" clip-rule="evenodd" d="M4.94654e-07 3.99184C4.94654e-07 3.14779 0.352084 2.3383 0.978796 1.74147C1.60551 1.14463 2.45551 0.80933 3.34182 0.80933H36.6545C37.0938 0.808647 37.5288 0.890474 37.9348 1.05013C38.3408 1.20978 38.7097 1.44412 39.0204 1.73973C39.3312 2.03535 39.5777 2.38643 39.7458 2.77288C39.9138 3.15933 40.0002 3.57356 40 3.99184V35.7166C40.0005 36.1349 39.9143 36.5493 39.7465 36.9359C39.5786 37.3226 39.3324 37.6739 39.0218 37.9698C38.7113 38.2657 38.3425 38.5004 37.9366 38.6604C37.5307 38.8205 37.0957 38.9028 36.6564 38.9025H3.34182C2.90281 38.9025 2.46811 38.8202 2.06254 38.6601C1.65697 38.5001 1.28849 38.2655 0.978153 37.9698C0.667813 37.6741 0.421694 37.323 0.253859 36.9367C0.0860241 36.5504 -0.000238356 36.1364 4.94654e-07 35.7183V3.99184ZM15.8327 15.3332H21.2491V17.9236C22.0309 16.4345 24.0309 15.0943 27.0364 15.0943C32.7982 15.0943 34.1636 18.0604 34.1636 23.5025V33.5833H28.3327V24.7423C28.3327 21.6429 27.5509 19.894 25.5655 19.894C22.8109 19.894 21.6655 21.7796 21.6655 24.7423V33.5833H15.8327V15.3332ZM5.83273 33.3461H11.6655V15.0943H5.83273V33.3444V33.3461ZM12.5 9.14135C12.511 9.61695 12.4221 10.0899 12.2386 10.5323C12.0551 10.9747 11.7806 11.3778 11.4313 11.7179C11.082 12.058 10.6649 12.3281 10.2045 12.5126C9.74402 12.6971 9.24953 12.7921 8.75 12.7921C8.25047 12.7921 7.75598 12.6971 7.29554 12.5126C6.83509 12.3281 6.41798 12.058 6.06867 11.7179C5.71936 11.3778 5.4449 10.9747 5.26138 10.5323C5.07787 10.0899 4.989 9.61695 5 9.14135C5.02159 8.20782 5.42615 7.31944 6.12706 6.66648C6.82797 6.01352 7.7695 5.64789 8.75 5.64789C9.7305 5.64789 10.672 6.01352 11.3729 6.66648C12.0738 7.31944 12.4784 8.20782 12.5 9.14135Z" fill="#968E8E"/>
</svg>
