<svg width="40" height="39" viewBox="0 0 40 39" fill="none" xmlns="http://www.w3.org/2000/svg">
<path d="M39.9333 23.9894L36.4998 9.34022C36.4099 8.96033 36.2338 8.60524 35.9847 8.30138C35.7356 7.99753 35.4198 7.75275 35.061 7.58525L21.1511 1.06603C20.7905 0.897036 20.396 0.809326 19.9964 0.809326C19.5969 0.809326 19.2024 0.897036 18.8418 1.06603L4.93745 7.58797C4.57865 7.75555 4.26296 8.00036 4.01385 8.3042C3.76475 8.60804 3.58865 8.96309 3.49864 9.34294L0.0665631 23.9921C-0.0125156 24.3298 -0.0212315 24.6797 0.0409388 25.0208C0.103109 25.3619 0.234883 25.6872 0.428345 25.977C0.475135 26.048 0.525563 26.1165 0.579434 26.1824L10.2048 37.9285C10.4551 38.233 10.7718 38.4786 11.1317 38.6472C11.4915 38.8158 11.8853 38.903 12.284 38.9025L27.7186 38.8998C28.1172 38.9004 28.5109 38.8133 28.8707 38.645C29.2305 38.4767 29.5473 38.2314 29.7978 37.9271L39.4204 26.1797C39.6692 25.8765 39.8446 25.5218 39.9334 25.1424C40.0222 24.763 40.0222 24.3688 39.9333 23.9894ZM34.6521 23.8126C34.5874 24.0321 34.4378 24.218 34.2352 24.3306C34.0326 24.4433 33.7932 24.4736 33.5681 24.4152H33.5626L33.5556 24.4139L33.5459 24.4111L33.539 24.4084L33.46 24.3921C33.4144 24.3834 33.3691 24.3734 33.3242 24.3622C33.1538 24.3151 32.9874 24.255 32.8265 24.1826C32.7475 24.1486 32.6644 24.1119 32.577 24.0792L32.5521 24.071C32.0917 23.8895 31.6145 23.7524 31.1271 23.6615C30.9778 23.6515 30.8305 23.6994 30.7168 23.7949L30.6655 23.8289L30.6628 23.8316H30.66C30.5439 23.8096 30.4274 23.7892 30.3107 23.7704C29.5053 26.2534 27.7992 28.3597 25.516 29.6896C25.5299 29.7196 25.5438 29.7577 25.559 29.7998C25.5833 29.8737 25.6144 29.9452 25.6519 30.0134L25.6547 30.0162L25.6533 30.0202L25.6297 30.0774C25.561 30.2069 25.546 30.3576 25.5881 30.4977C25.7916 30.9512 26.039 31.3845 26.3269 31.7915C26.3782 31.8691 26.4309 31.9398 26.4822 32.0092C26.5909 32.1465 26.6882 32.292 26.7733 32.4445C26.7954 32.4853 26.8246 32.5466 26.8495 32.5983L26.8814 32.6649C26.9409 32.764 26.9787 32.8741 26.9924 32.9883C27.006 33.1026 26.9953 33.2183 26.9608 33.3282C26.9264 33.4381 26.869 33.5398 26.7922 33.6267C26.7155 33.7136 26.6211 33.7838 26.5152 33.8329C26.4092 33.882 26.294 33.9089 26.1769 33.9118C26.0598 33.9147 25.9433 33.8937 25.8349 33.85C25.7266 33.8062 25.6287 33.7408 25.5475 33.6579C25.4664 33.5749 25.4037 33.4763 25.3636 33.3683L25.3331 33.307C25.3078 33.2577 25.2838 33.2078 25.261 33.1574C25.1922 32.9963 25.1361 32.8303 25.0933 32.6608C25.0697 32.5792 25.0461 32.4962 25.0184 32.4092L25.0101 32.3874C24.8679 31.9203 24.6799 31.4679 24.4487 31.0365C24.3623 30.9159 24.2316 30.833 24.0842 30.8052L24.0273 30.7875H24.0246L24.0232 30.7848L23.94 30.6379L23.8485 30.4746C23.3843 30.6467 22.9087 30.7876 22.425 30.8964C20.3428 31.3618 18.1665 31.2084 16.1735 30.4556L15.9864 30.7875L15.9836 30.7889C15.8507 30.8087 15.727 30.8675 15.6287 30.9576C15.4162 31.2553 15.2586 31.5873 15.163 31.9384C15.1075 32.0976 15.0521 32.2622 14.9856 32.4241C14.9583 32.5087 14.9334 32.594 14.9107 32.6799C14.8683 32.848 14.8126 33.0126 14.7444 33.1724C14.723 33.2199 14.6999 33.2666 14.6751 33.3125L14.6418 33.3805V33.3832L14.639 33.386C14.566 33.5418 14.4502 33.6746 14.3045 33.7693C14.1587 33.864 13.989 33.9169 13.8143 33.922C13.6991 33.9225 13.5854 33.8974 13.4816 33.8485C13.2783 33.7378 13.1271 33.5535 13.0603 33.3349C12.9935 33.1163 13.0163 32.8808 13.124 32.6785L13.1614 32.5996L13.2307 32.4581C13.3163 32.3051 13.4136 32.1586 13.5218 32.0201C13.5731 31.9521 13.6258 31.88 13.677 31.8051C13.9707 31.3872 14.2228 30.9426 14.4297 30.4773C14.4516 30.3212 14.426 30.1622 14.3563 30.0202V30.0148L14.5046 29.6652C12.2295 28.3453 10.524 26.2553 9.70853 23.7881L9.34814 23.8479V23.8466L9.31071 23.8262C9.18165 23.7382 9.0297 23.6882 8.87269 23.682C8.38536 23.773 7.90815 23.9101 7.44774 24.0914L7.42418 24.101C7.34133 24.1326 7.25908 24.1657 7.17745 24.2003C7.01519 24.2732 6.84743 24.3337 6.67567 24.3812C6.63408 24.3921 6.57864 24.4043 6.52319 24.4152L6.46081 24.4288L6.45388 24.4316L6.44418 24.4343H6.43171C6.32024 24.4705 6.20229 24.4835 6.08541 24.4725C5.96852 24.4614 5.85529 24.4264 5.75297 24.3699C5.65065 24.3133 5.5615 24.2364 5.49124 24.1441C5.42098 24.0517 5.37115 23.946 5.34496 23.8336C5.31877 23.7213 5.31679 23.6048 5.33914 23.4917C5.3615 23.3785 5.4077 23.2712 5.47478 23.1766C5.54186 23.082 5.62835 23.0022 5.72869 22.9424C5.82903 22.8825 5.94101 22.8439 6.05745 22.829H6.06438L6.07131 22.8262H6.07963L6.14339 22.8099C6.19883 22.7963 6.25567 22.7827 6.30141 22.7745C6.47543 22.745 6.65156 22.7291 6.82814 22.7269C6.91685 22.7228 7.00695 22.7188 7.09982 22.712L7.12062 22.7092C7.6181 22.676 8.1111 22.5953 8.59269 22.4684C8.72194 22.3907 8.83144 22.2851 8.91289 22.1596L8.94616 22.1161L8.94755 22.1147H8.95032L9.29269 22.0168C8.91625 19.4408 9.52028 16.8191 10.9893 14.6527L10.726 14.4215V14.4187L10.7204 14.382C10.7103 14.2267 10.6549 14.0775 10.561 13.9521C10.178 13.6291 9.76393 13.3434 9.32457 13.0991C9.24654 13.0548 9.16751 13.0121 9.08754 12.9712C8.92965 12.8935 8.77811 12.8039 8.63428 12.7032C8.59188 12.6716 8.55028 12.6389 8.50953 12.6053L8.46101 12.5672L8.45408 12.5631L8.44715 12.5577C8.25643 12.4111 8.128 12.2001 8.08675 11.9659C8.06612 11.8571 8.06929 11.7454 8.09605 11.6379C8.12282 11.5305 8.17257 11.4299 8.242 11.3428C8.32272 11.2465 8.42538 11.1703 8.54169 11.1202C8.65799 11.0701 8.78468 11.0475 8.91151 11.0544C9.12452 11.0637 9.32895 11.1395 9.49507 11.2707L9.54636 11.3088L9.68081 11.4149C9.81371 11.5306 9.93743 11.6562 10.0509 11.7904C10.1064 11.8543 10.1646 11.9196 10.2283 11.9863L10.2422 11.9999C10.5785 12.361 10.9499 12.6891 11.3511 12.9794C11.4815 13.0521 11.6356 13.0721 11.7808 13.0352L11.839 13.0256H11.8418L11.8432 13.027C11.8931 13.0624 12.0497 13.1726 12.1398 13.2324C13.6027 11.7077 15.4962 10.6465 17.5776 10.185C18.0717 10.0761 18.5728 10.0007 19.0774 9.95922L19.0968 9.61639C19.2259 9.50493 19.3197 9.35952 19.3671 9.19737C19.3852 8.70586 19.3546 8.21379 19.2757 7.7281L19.2743 7.71721C19.2613 7.62978 19.246 7.54268 19.2285 7.45601C19.1923 7.28563 19.1691 7.11282 19.1592 6.93904V6.7962L19.1606 6.72818V6.70505C19.147 6.58902 19.1585 6.47147 19.1945 6.36012C19.2304 6.24876 19.2899 6.14613 19.3691 6.05894C19.4483 5.97175 19.5454 5.90198 19.6539 5.85421C19.7625 5.80644 19.8802 5.78174 19.9992 5.78174C20.1182 5.78174 20.2359 5.80644 20.3445 5.85421C20.4531 5.90198 20.5502 5.97175 20.6294 6.05894C20.7085 6.14613 20.7681 6.24876 20.804 6.36012C20.8399 6.47147 20.8514 6.58902 20.8378 6.70505L20.8406 6.78667V6.93632C20.8308 7.11011 20.8077 7.28293 20.7713 7.45329C20.7543 7.53999 20.7395 7.62708 20.7269 7.71449L20.7214 7.75803C20.6444 8.23294 20.6147 8.71409 20.6327 9.19465C20.6562 9.33991 20.7368 9.47032 20.8572 9.55789L20.903 9.5987L20.9058 9.60006V9.60278C20.9071 9.66264 20.9168 9.8531 20.9238 9.96194C22.2329 10.0769 23.5097 10.4254 24.6913 10.9904C25.8651 11.5489 26.9274 12.3091 27.8281 13.2352L28.1414 13.0161H28.1442L28.1871 13.0188C28.3419 13.0436 28.5007 13.0242 28.6446 12.9631C29.0391 12.6764 29.4044 12.3529 29.7354 11.9972L29.7659 11.9672C29.8283 11.9019 29.8852 11.838 29.942 11.774C30.0569 11.6389 30.182 11.5125 30.3162 11.3958C30.3523 11.3645 30.4022 11.3278 30.4507 11.2897L30.5006 11.2503C30.5851 11.1695 30.6859 11.1069 30.7965 11.0667C30.9071 11.0265 31.0251 11.0094 31.1428 11.0167C31.2605 11.024 31.3754 11.0554 31.48 11.1089C31.5846 11.1624 31.6766 11.2369 31.7501 11.3274C31.8236 11.418 31.877 11.5227 31.9067 11.6347C31.9364 11.7468 31.9419 11.8637 31.9228 11.9779C31.9037 12.0922 31.8604 12.2012 31.7956 12.298C31.7309 12.3948 31.6463 12.4772 31.5471 12.54L31.4861 12.5876C31.4446 12.623 31.3988 12.6583 31.3642 12.6842C31.2203 12.7848 31.0688 12.8744 30.9109 12.9522C30.8333 12.993 30.7529 13.0338 30.6711 13.0814C30.2321 13.3262 29.818 13.6119 29.4347 13.9344C29.3338 14.0431 29.2801 14.1861 29.285 14.333L29.2794 14.3929V14.3942L29.278 14.3956L29.1519 14.5072C29.0965 14.5552 29.0415 14.6037 28.9869 14.6527C30.4617 16.8106 31.0782 19.4247 30.7196 21.9991L31.0523 22.0943H31.0537L31.0772 22.1297C31.1553 22.2641 31.2707 22.374 31.4099 22.4467C31.8921 22.5728 32.3855 22.653 32.8834 22.6861H32.9C32.9943 22.6956 33.0844 22.6997 33.1731 22.7024C33.3496 22.7049 33.5257 22.7208 33.6998 22.7501C33.7414 22.7582 33.7968 22.7718 33.8523 22.7854L33.941 22.8058C34.1699 22.8492 34.3725 22.9788 34.5052 23.167C34.6378 23.3552 34.6901 23.587 34.6507 23.8126H34.6521Z" fill="#04D6BD"/>
</svg>
