<svg width="55" height="55" viewBox="0 0 55 55" fill="none" xmlns="http://www.w3.org/2000/svg">
<g clip-path="url(#clip0_1_73)">
<path d="M0.00012207 0H55.0001V55H0.00012207V0Z" fill="url(#paint0_linear_1_73)"/>
<path d="M30.4289 35.2894C27.3923 35.2894 24.922 32.8191 24.922 29.7831C24.922 26.7465 27.3923 24.2763 30.4289 24.2763C33.4655 24.2763 35.9357 26.7465 35.9357 29.7831C35.9357 32.8191 33.4655 35.2894 30.4289 35.2894ZM30.4289 22.9015C26.6339 22.9015 23.547 25.9881 23.547 29.7831C23.547 33.5775 26.6339 36.6644 30.4289 36.6644C34.2239 36.6644 37.3107 33.5775 37.3107 29.7831C37.3107 25.9881 34.2239 22.9013 30.4289 22.9013V22.9015ZM44.377 42.1753C44.1607 42.4138 43.8589 42.5571 43.5375 42.574C43.216 42.5909 42.9009 42.48 42.6608 42.2656L36.927 37.0934C37.5329 36.5544 38.0764 35.9494 38.5338 35.2778L44.2861 40.46C44.7832 40.9084 44.8232 41.679 44.377 42.1753ZM22.0076 29.7831C22.0076 25.1391 25.7855 21.3613 30.4289 21.3613C35.0723 21.3613 38.8501 25.1391 38.8501 29.7831C38.8501 34.4266 35.0723 38.2044 30.4289 38.2044C25.7855 38.2044 22.0076 34.4266 22.0076 29.7831ZM39.231 34.0553C39.8614 32.762 40.2251 31.3156 40.2251 29.7831C40.2251 24.3809 35.8305 19.9863 30.4289 19.9863C25.0273 19.9863 20.6326 24.3809 20.6326 29.7831C20.6326 35.185 25.0273 39.5794 30.4289 39.5794C32.422 39.5794 34.2761 38.9778 35.8251 37.9513L41.741 43.2878C42.2161 43.7151 42.833 43.9508 43.472 43.9491C44.181 43.9491 44.887 43.6618 45.3985 43.0959C46.3514 42.0359 46.2661 40.3954 45.2073 39.4393L39.231 34.0553ZM46.0626 13.75V37.125H44.6876V14.4375H39.1876V22H37.8126V13.75C37.8126 13.3706 38.1207 13.0625 38.5001 13.0625H45.3751C45.5575 13.0625 45.7323 13.1349 45.8613 13.2639C45.9902 13.3928 46.0626 13.5677 46.0626 13.75ZM35.0626 41.9375H36.4376V45.375C36.4376 45.7553 36.1304 46.0625 35.7501 46.0625H28.8751C28.4948 46.0625 28.1876 45.7553 28.1876 45.375V41.25H29.5626V44.6875H35.0626V41.9375ZM29.5626 17.875H28.1876V9.625C28.1876 9.44266 28.2601 9.2678 28.389 9.13886C28.5179 9.00993 28.6928 8.9375 28.8751 8.9375H35.7501C35.9325 8.9375 36.1073 9.00993 36.2363 9.13886C36.3652 9.2678 36.4376 9.44266 36.4376 9.625V19.25H35.0626V10.3125H29.5626V17.875ZM25.4376 40.5625H26.8126V45.375C26.8126 45.7553 26.5054 46.0625 26.1251 46.0625H19.2501C19.0678 46.0625 18.8929 45.9901 18.764 45.8611C18.6351 45.7322 18.5626 45.5573 18.5626 45.375V35.0625H19.9376V44.6875H25.4376V40.5625ZM19.9376 24.75H18.5626V15.8125C18.5626 15.4331 18.8707 15.125 19.2501 15.125H26.1251C26.3075 15.125 26.4823 15.1974 26.6113 15.3264C26.7402 15.4553 26.8126 15.6302 26.8126 15.8125V18.5625H25.4376V16.5H19.9376V24.75ZM10.3126 44.6875H15.8126V21.3125H10.3126V44.6875ZM16.5001 19.9375H9.62512C9.4428 19.9376 9.26797 20.01 9.13905 20.1389C9.01013 20.2678 8.93768 20.4427 8.93762 20.625V45.375C8.93762 45.5573 9.01006 45.7322 9.13899 45.8611C9.26792 45.9901 9.44279 46.0625 9.62512 46.0625H16.5001C16.8804 46.0625 17.1876 45.7553 17.1876 45.375V20.625C17.1876 20.4427 17.1152 20.2678 16.9863 20.1389C16.8573 20.0099 16.6825 19.9375 16.5001 19.9375Z" fill="white"/>
</g>
<defs>
<linearGradient id="paint0_linear_1_73" x1="0.00012207" y1="55" x2="55.0001" y2="0" gradientUnits="userSpaceOnUse">
<stop stop-color="#4D27A8"/>
<stop offset="1" stop-color="#A166FF"/>
</linearGradient>
<clipPath id="clip0_1_73">
<rect width="55" height="55" fill="white"/>
</clipPath>
</defs>
</svg>
