<svg width="53" height="59" viewBox="0 0 53 59" fill="none" xmlns="http://www.w3.org/2000/svg">
<g clip-path="url(#clip0_1_76)">
<path d="M50.2661 32.774C53.9115 35.6368 53.9115 40.3466 50.2661 43.2326L33.1135 56.808C29.4679 59.6709 23.5321 59.6709 19.8867 56.808L2.73418 43.2555C-0.91123 40.3927 -0.91123 35.6829 2.73418 32.7969L19.8867 19.2215C23.5323 16.3586 29.4681 16.3586 33.1135 19.2215L50.2661 32.774Z" fill="#FF9D00"/>
<path d="M19.9279 48.3345L2.6994 34.6995C0.962403 33.3292 0.00012207 31.4941 0.00012207 29.5429C0.00012207 27.5916 0.962403 25.7567 2.6994 24.3862L19.9279 10.728C21.6649 9.35744 24.012 8.59106 26.5001 8.59106C28.9882 8.59106 31.3119 9.35744 33.0723 10.728L50.3008 24.363C52.0378 25.7334 53.0001 27.5684 53.0001 29.5196C53.0001 31.471 52.0378 33.3058 50.3008 34.6764L33.0723 48.3114C31.3119 49.7051 28.9882 50.4717 26.5001 50.4717C24.012 50.4717 21.6883 49.7051 19.9279 48.3348V48.3345Z" fill="black" fill-opacity="0.1"/>
<path d="M19.9279 48.3345L2.6994 34.6995C0.962403 33.3292 0.00012207 31.4941 0.00012207 29.5429C0.00012207 27.5916 0.962403 25.7567 2.6994 24.3862L19.9279 10.728C21.6649 9.35744 24.012 8.59106 26.5001 8.59106C28.9882 8.59106 31.3119 9.35744 33.0723 10.728L50.3008 24.363C52.0378 25.7334 53.0001 27.5684 53.0001 29.5196C53.0001 31.471 52.0378 33.3058 50.3008 34.6764L33.0723 48.3114C31.3119 49.7051 28.9882 50.4717 26.5001 50.4717C24.012 50.4717 21.6883 49.7051 19.9279 48.3348V48.3345Z" fill="#FFCC00"/>
<path d="M19.9279 39.7437L2.6994 26.1086C0.962403 24.7381 0.00012207 22.9031 0.00012207 20.9519C0.00012207 19.0007 0.962403 17.1659 2.6994 15.7953L19.9279 2.13693C21.6649 0.766583 24.012 0 26.5001 0C28.9882 0 31.3119 0.766583 33.0723 2.13693L50.3008 15.772C52.0378 17.1425 53.0001 18.9776 53.0001 20.9287C53.0001 22.8799 52.0378 24.715 50.3008 26.0855L33.0723 39.7206C31.3119 41.1142 28.9882 41.8806 26.5001 41.8806C24.012 41.8806 21.6883 41.1142 19.9279 39.7437Z" fill="black" fill-opacity="0.1"/>
<path d="M19.9279 39.7437L2.6994 26.1086C0.962403 24.7381 0.00012207 22.9031 0.00012207 20.9519C0.00012207 19.0007 0.962403 17.1659 2.6994 15.7953L19.9279 2.13693C21.6649 0.766583 24.012 0 26.5001 0C28.9882 0 31.3119 0.766583 33.0723 2.13693L50.3008 15.772C52.0378 17.1425 53.0001 18.9776 53.0001 20.9287C53.0001 22.8799 52.0378 24.715 50.3008 26.0855L33.0723 39.7206C31.3119 41.1142 28.9882 41.8806 26.5001 41.8806C24.012 41.8806 21.6883 41.1142 19.9279 39.7437Z" fill="url(#paint0_linear_1_76)"/>
<path d="M26.5595 34.019C35.3633 34.019 42.5001 28.1445 42.5001 20.8979C42.5001 13.6511 35.3633 7.77653 26.5595 7.77653C17.756 7.77653 10.6192 13.6511 10.6192 20.8979C10.6192 28.1447 17.756 34.019 26.5595 34.019ZM26.5595 35.37C16.8498 35.37 8.97824 28.8904 8.97824 20.8979C8.97824 12.9051 16.8496 6.42578 26.5595 6.42578C36.2695 6.42578 44.141 12.9051 44.141 20.8979C44.141 28.8904 36.2697 35.3698 26.5595 35.3698V35.37Z" fill="white"/>
<path d="M27.7344 26.4672C28.6158 26.3511 29.4747 26.1036 30.2611 25.725L35.2789 27.8021L32.6504 23.8368C34.033 22.0434 34.033 19.7718 32.6504 17.9785L35.2789 14.0132L30.5497 15.9708L30.4138 18.0646C32.3471 19.6974 32.2978 22.2759 30.2888 23.852C29.7762 24.2648 29.1876 24.5546 28.5694 24.7606L27.7344 26.4672ZM25.3888 15.3447C23.9334 15.5351 22.8425 16.0901 22.8425 16.0901L17.8292 14.0132L20.4577 17.9785C19.0752 19.7718 19.0752 22.0434 20.4577 23.8368L17.8292 27.8021L22.6876 25.7911L22.7912 23.8299C20.7587 22.2019 20.7751 19.5975 22.8243 17.9624C23.3009 17.5328 24.3787 17.0776 24.5404 17.0535L25.389 15.3445L25.3888 15.3447Z" fill="#8CC8F6"/>
<path d="M24.1482 20.4649L23.4804 32.3846L28.8876 21.3299L29.6619 9.43274L24.148 20.4649H24.1482ZM24.0783 30.0936L28.4094 21.2444L24.6141 20.547L24.0783 30.0936Z" fill="white"/>
</g>
<defs>
<linearGradient id="paint0_linear_1_76" x1="26.5001" y1="0" x2="26.5001" y2="41.8806" gradientUnits="userSpaceOnUse">
<stop stop-color="#34AADC"/>
<stop offset="1" stop-color="#007AFF"/>
</linearGradient>
<clipPath id="clip0_1_76">
<rect width="53" height="59" fill="white"/>
</clipPath>
</defs>
</svg>
