<svg width="40" height="29" viewBox="0 0 40 29" fill="none" xmlns="http://www.w3.org/2000/svg">
<path d="M39.1624 5.1662C38.936 4.31107 38.4948 3.53688 37.8859 2.92592C37.2598 2.29618 36.4925 1.84571 35.6562 1.61703C32.5267 0.743855 19.9883 0.743855 19.9883 0.743855C14.7613 0.680902 9.53546 0.957783 4.34044 1.57293C3.50421 1.81851 2.73827 2.27904 2.11074 2.91358C1.49416 3.54156 1.04755 4.31596 0.814252 5.16444C0.253816 8.36036 -0.0184822 11.6054 0.0010285 14.8559C-0.0189688 18.1034 0.252661 21.3474 0.814252 24.5473C1.04255 25.3922 1.4875 26.1631 2.10575 26.7858C2.724 27.4085 3.49389 27.8583 4.34044 28.0964C7.51168 28.9679 19.9883 28.9679 19.9883 28.9679C25.2221 29.0309 30.4545 28.754 35.6562 28.1388C36.4925 27.9101 37.2598 27.4596 37.8859 26.8299C38.4946 26.2191 38.9352 25.4448 39.1608 24.5896C39.7358 21.3949 40.0154 18.1485 39.9956 14.8964C40.0389 11.6306 39.7596 8.36886 39.1624 5.16444V5.1662ZM16.0022 20.8958V8.81768L26.4341 14.8576L16.0022 20.8958Z" fill="#968E8E"/>
</svg>
